<?xml version="1.0" encoding="UTF-8" standalone="no"?>
<!-- Created with Inkscape (http://www.inkscape.org/) -->

<svg
   xmlns:dc="http://purl.org/dc/elements/1.1/"
   xmlns:cc="http://creativecommons.org/ns#"
   xmlns:rdf="http://www.w3.org/1999/02/22-rdf-syntax-ns#"
   xmlns:svg="http://www.w3.org/2000/svg"
   xmlns="http://www.w3.org/2000/svg"
   xmlns:sodipodi="http://sodipodi.sourceforge.net/DTD/sodipodi-0.dtd"
   xmlns:inkscape="http://www.inkscape.org/namespaces/inkscape"
   id="svg2"
   version="1.1"
   inkscape:version="0.92.2 5c3e80d, 2017-08-06"
   width="1437"
   height="1188"
   viewBox="0 0 1437 1188"
   sodipodi:docname="BNE_logo.svg">
  <metadata
     id="metadata8">
    <rdf:RDF>
      <cc:Work
         rdf:about="">
        <dc:format>image/svg+xml</dc:format>
        <dc:type
           rdf:resource="http://purl.org/dc/dcmitype/StillImage" />
        <dc:title></dc:title>
      </cc:Work>
    </rdf:RDF>
  </metadata>
  <defs
     id="defs6" />
  <sodipodi:namedview
     pagecolor="#ffffff"
     bordercolor="#666666"
     borderopacity="1"
     objecttolerance="10"
     gridtolerance="10"
     guidetolerance="10"
     inkscape:pageopacity="0"
     inkscape:pageshadow="2"
     inkscape:window-width="1440"
     inkscape:window-height="759"
     id="namedview4"
     showgrid="false"
     fit-margin-top="0"
     fit-margin-left="0"
     fit-margin-right="0"
     fit-margin-bottom="0"
     inkscape:zoom="0.28093805"
     inkscape:cx="450.63329"
     inkscape:cy="642.90095"
     inkscape:window-x="0"
     inkscape:window-y="1"
     inkscape:window-maximized="1"
     inkscape:current-layer="svg2"
     inkscape:snap-global="false" />
  <g
     id="g816">
    <rect
       y="26.343298"
       x="28.47603"
       height="1143.8591"
       width="1383.6074"
       id="rect812"
       style="opacity:1;fill:#ffffff;fill-opacity:1;fill-rule:nonzero;stroke:none;stroke-width:1.25169766;stroke-miterlimit:4;stroke-dasharray:none;stroke-dashoffset:0;stroke-opacity:1" />
    <path
       inkscape:connector-curvature="0"
       id="path4138"
       d="M 0,594 V 0 H 718.50003 1437 v 594 594 H 718.50003 0 Z m 1206.828,417.3398 c 9.8647,-0.7679 10.8192,-1.671 12.1683,-11.51272 1.873,-13.66386 8.2178,-110.01297 7.3048,-110.92603 -1.153,-1.15299 -17.3011,-2.49264 -17.3011,-1.43529 0,0.4192 -1.1493,7.5734 -2.5539,15.89821 -3.5938,21.29919 -6.924,33.79429 -11.63,43.63603 -5.5017,11.50584 -18.5439,24.70518 -29.9452,30.30608 -8.8405,4.34291 -22.4518,8.01873 -35.5834,9.60961 -9.206,1.11529 -57.3732,3.02171 -77.38,3.06264 l -10.5925,0.0217 -0.6609,-49.75 c -0.3635,-27.3625 -0.9551,-66.0996 -1.3147,-86.08243 l -0.6538,-36.33244 8.4072,0.64676 c 25.97,1.99784 35.5951,3.55865 46.0367,7.46537 14.9872,5.60745 20.6872,17.34856 24.906,51.30274 l 1.2114,9.75 8.6266,-6.1e-4 8.6265,-6e-4 0.019,-63.2494 c 0.011,-34.78716 0.363,-69.88689 0.7834,-77.99939 l 0.7644,-14.75 h -8.5335 c -6.1503,0 -8.5385,0.34909 -8.5517,1.25 -0.01,0.6875 -0.6893,5.975 -1.5093,11.75 -2.8888,20.34448 -7.7931,33.06377 -15.8865,41.20088 -5.14,5.16785 -15.8028,10.23245 -25.7725,12.24143 -7.7534,1.56238 -37.5105,4.19388 -38.316,3.38838 -0.2389,-0.23889 -0.1504,-34.69019 0.1968,-76.55843 0.6308,-76.08196 0.6323,-76.12438 2.7185,-76.68451 6.1153,-1.64194 64.9706,0.55966 79.0873,2.95842 21.0152,3.57098 33.4779,9.183 44.0627,19.84177 11.0952,11.17268 17.72,26.62084 24.0053,55.97698 l 1.6839,7.86491 5.9673,-0.67512 c 3.282,-0.37132 7.0503,-1.08689 8.3741,-1.59017 2.9368,-1.1166 2.9203,-0.52632 0.9673,-34.46454 -0.7912,-13.75 -1.7436,-35.75789 -2.1164,-48.90642 l -0.6778,-23.90643 -23.1332,0.65586 c -12.7233,0.36073 -101.7707,0.95569 -197.88317,1.32215 l -174.75,0.66628 v 7.71765 c 0,7.15816 0.16311,7.76136 2.25,8.32062 1.2375,0.33164 15.00668,0.60913 30.59819,0.61664 l 28.34818,0.0136 -0.59526,5.75 c -0.3274,3.1625 -1.03642,42.65 -1.5756,87.75 -1.25017,104.571 -2.06859,143.40859 -3.03461,144.00562 -0.6655,0.41142 -96.83489,-150.94573 -145.02908,-228.25557 l -16.364,-26.25 H 629.7988 557 v 7.93261 c 0,6.70159 0.2715,8.00863 1.75,8.42248 0.9625,0.26943 10.525,0.77498 21.25,1.12345 10.725,0.34847 22.0754,1.11453 25.2232,1.70236 l 5.7232,1.06877 0.023,172.8188 c 0.012,95.05033 -0.3261,173.03426 -0.7522,173.29761 -0.4261,0.26335 -12.5742,0.80512 -26.9958,1.20393 l -26.2209,0.72512 v 7.85244 7.8524 h 67.5 67.50005 v -7.8908 -7.89076 l -27.89175,-0.73326 c -15.3405,-0.40329 -28.352,-1.0177 -28.9145,-1.36536 -1.2759,-0.78856 -3.6862,-303.26269 -2.5001,-313.74581 l 0.8063,-7.12601 89.50003,140.55305 C 804.99999,941.57506 830.78678,982.39753 843.1457,1003 l 4.49905,7.5 19.52683,0.2706 19.52683,0.2707 0.0748,-87.27063 c 0.0734,-85.65111 1.06912,-156.7956 3.3347,-238.27064 0.62704,-22.55 1.1969,-41.03907 1.26634,-41.08683 0.0694,-0.0478 13.96376,0.12025 30.87626,0.37333 l 30.75,0.46015 v 174.23838 174.23837 l -26.75,0.73552 c -14.7125,0.40454 -27.0875,0.94333 -27.5,1.19732 -0.4125,0.25399 -0.75,3.78605 -0.75,7.84903 v 7.3872 l 131.14879,0.036 c 72.1318,0.02 131.3818,0.2689 131.6667,0.5537 0.7394,0.7395 36.0892,0.6301 46.0125,-0.1423 z m -760.8064,-3.2567 c 20.7611,-3.5517 41.3728,-11.5979 55.9784,-21.85225 15.3398,-10.76988 31.4937,-30.25674 37.9623,-45.79494 11.909,-28.60667 9.6664,-61.42161 -5.7489,-84.12165 -4.7273,-6.96122 -15.5007,-17.33465 -23.526,-22.65254 -18.9271,-12.54194 -51.3565,-22.12194 -82.2322,-24.29228 -5.2374,-0.36816 -9.7237,-0.99475 -9.9694,-1.39244 -0.2458,-0.39769 2.3568,-1.03891 5.7836,-1.42494 28.1184,-3.16751 58.1431,-14.04263 73.7975,-26.72983 23.0906,-18.71394 34.4478,-44.51757 32.4919,-73.82223 -0.7662,-11.48048 -2.6503,-19.1461 -7.0479,-28.67465 -9.9341,-21.52517 -27.9971,-37.52496 -51.0318,-45.20286 -18.3514,-6.11687 -23.1443,-6.60195 -64.9791,-6.57647 -28.5742,0.0174 -192.7344,2.04195 -194.25,2.39564 -0.7622,0.17787 -0.093,14.037 0.7009,14.52802 0.523,0.32325 11.8176,0.95791 25.0991,1.41037 16.9751,0.57829 24.3693,1.18038 24.8925,2.02694 1.5938,2.57879 2.0575,46.13338 2.0575,193.25382 0,84.06155 -0.1125,152.8827 -0.25,152.93588 -0.1375,0.0532 -12.4,0.61567 -27.25,1.25 l -27,1.15331 -0.2931,8.4146 -0.2931,8.4146 111.7931,-0.6375 c 104.9986,-0.5987 112.4933,-0.7573 123.3147,-2.6086 z m -94.6873,-20.18392 c 0.3566,-2.96955 0.6522,-42.41168 0.657,-87.64918 l 0.01,-82.25 h 8.9455 c 14.5046,0 33.8419,2.01229 44.0444,4.58336 22.761,5.73592 37.8846,17.99641 48.0048,38.91664 7.3373,15.16764 8.4935,20.81232 8.4999,41.5 0.01,19.11617 -1.4597,27.36517 -7.4374,41.86133 -5.9467,14.42072 -18.0672,29.06088 -29.2201,35.29436 -15.3723,8.59176 -27.7751,11.33613 -56.2441,12.44512 l -17.9069,0.69756 0.6482,-5.39919 z M 352,723.02568 v -76.97432 l 3.25,-1.6902 c 4.7498,-2.47021 38.4736,-2.54539 47.4672,-0.10581 20.6814,5.60998 35.7704,20.04833 42.706,40.86437 3.4941,10.48706 5.0726,28.43259 3.6996,42.05887 -3.6034,35.75944 -21.2516,59.77518 -50.5088,68.73222 -6.7165,2.05623 -26.548,4.061 -40.364,4.08041 l -6.25,0.009 V 723.0259 Z m 1,-198.00504 c 91.3703,-42.36399 183.5795,-67.62835 279,-76.44305 62.92845,-5.81317 129.21137,-5.29685 189.50003,1.47614 95.58224,10.73797 183.67497,36.67257 279.91367,82.40686 7.6525,3.63662 14.253,6.25819 14.6676,5.82572 1.9601,-2.04416 11.9943,-22.35494 11.4663,-23.20935 -1.6446,-2.66098 -41.8417,-21.87841 -67.0476,-32.05414 -24.2026,-9.77069 -48.0719,-18.50491 -70.99997,-25.98027 -19.29205,-6.28988 -58.86162,-17.12202 -70.25,-19.23089 -3.92088,-0.72606 -6.25,-1.64866 -6.25,-2.47571 0,-0.72509 1.42839,-4.51288 3.1742,-8.41731 3.11795,-6.97316 3.22871,-7.08668 6.25,-6.40606 9.09228,2.04826 11.60749,2.40405 17.27658,2.44387 13.76324,0.0967 26.14963,-4.89885 35.84479,-14.45645 11.69047,-11.52459 16.00918,-22.9213 15.23996,-40.21694 -0.41666,-9.36851 -0.7769,-10.88422 -4.27948,-18.00633 -2.82415,-5.74258 -5.8351,-9.79527 -11.51114,-15.4938 l -7.68662,-7.71707 2.90154,-4.28293 c 16.5964,-24.49771 20.23304,-55.54746 9.70374,-82.85084 -5.82987,-15.11735 -19.63553,-32.45255 -33.37137,-41.90306 -6.97574,-4.79943 -20.33155,-10.77613 -28.14978,-12.59698 -4.77106,-1.11116 -11.66304,-1.60239 -22.39242,-1.59601 -14.51962,0.009 -16.10088,0.20204 -25,3.05782 -10.95041,3.51405 -23.23618,10.31945 -32.23321,17.85481 -5.51756,4.62116 -8.05689,7.39504 -16.70805,18.25133 l -1.9922,2.5 -0.0333,-6.07378 c -0.0878,-16.02064 -5.80073,-35.77631 -14.64115,-50.62965 -5.85543,-9.83808 -20.6033,-25.14452 -30.95848,-32.13105 -5.80835,-3.91882 -7.74594,-5.96019 -10.88362,-11.46655 -5.45102,-9.56608 -13.57432,-19.33129 -20.53913,-24.69059 l -6.01086,-4.625272 V 79.941555 64.000002 h -17 -16.99998 l -0.027,15.75 -0.027,15.75 -4.0919,2.5 c -6.1381,3.750098 -14.7304,13.660168 -20.7802,23.966988 -4.7547,8.10035 -6.2311,9.7577 -12.4833,14.0135 -19.53155,13.29485 -34.27315,32.01063 -41.19195,52.29673 -2.8676,8.408 -5.3989,21.90854 -5.3989,28.79475 0,2.6455 -0.4103,5.06353 -0.9116,5.3734 -0.5014,0.30987 -2.5279,-1.63832 -4.5032,-4.32932 -5.3834,-7.33363 -15.4786,-16.33227 -24.664,-21.98503 -16.1422,-9.934 -32.8109,-13.89744 -52.9212,-12.58345 -30.9832,2.02442 -59.6087,21.47063 -73.5317,49.95243 -6.0706,12.41839 -8.4526,23.05726 -8.4613,37.79216 -0.013,21.20266 3.7826,33.33791 17.0486,54.51332 1.3109,2.09234 1.2595,2.40531 -0.5556,3.38538 -4.0031,2.1615 -13.0852,12.45761 -16.2222,18.39059 -5.8811,11.12308 -7.6307,22.83259 -5.1727,34.61933 3.912,18.75958 21.1142,36.00416 39.7812,39.87942 5.2243,1.08457 17.7864,0.77022 26.2258,-0.65627 l 3.612,-0.61054 3.138,6.70558 c 1.7258,3.68807 3.1379,7.08771 3.1379,7.55476 0,0.46705 -1.6875,1.28115 -3.75,1.80911 -82.1271,21.02298 -129.6045,37.75853 -188.8527,66.56964 -11.6065,5.64397 -21.4095,10.75818 -21.7845,11.36491 -0.7601,1.22993 3.5922,10.33777 8.9202,18.66685 l 3.4896,5.45498 7.2387,-3.36599 c 3.9813,-1.8513 14.2137,-6.59996 22.7387,-10.55259 z m 200.668,-96.27776 c -0.2973,-0.68358 -3.014,-6.8421 -6.0372,-13.6856 -5.4598,-12.35939 -5.4861,-12.46654 -3.928,-16 5.7929,-13.13706 6.5945,-15.86779 7.0605,-24.05461 1.3343,-23.4415 -9.1557,-39.5766 -34.4056,-52.92047 -12.6552,-6.68794 -22.3843,-17.95657 -27.1791,-31.48016 -3.2246,-9.09479 -3.5949,-24.74291 -0.8071,-34.10204 7.1971,-24.16125 29.5936,-40.79839 54.7236,-40.65124 15.4761,0.0906 28.3477,5.49725 39.4002,16.54976 20.9348,20.93484 22.2911,53.26626 3.2167,76.68204 -2.4505,3.00834 -6.3519,6.78388 -8.6697,8.3901 -5.1377,3.56047 -5.3342,2.08605 3.5673,26.77934 6.0059,16.66073 7.006,18.75 8.9755,18.75 1.219,0 8.6736,-2.01198 16.5656,-4.47107 44.9948,-14.0199 87.62605,-19.32942 134.19169,-16.71295 34.81518,1.95623 57.51747,6.02174 91.06211,16.30733 8.74746,2.68218 16.92763,4.87669 18.17815,4.87669 2.47797,0 2.21568,0.56469 11.13393,-23.97014 2.49305,-6.85857 4.74748,-14.07054 5.00984,-16.02659 0.41403,-3.08681 0.11578,-3.74978 -2.25852,-5.02046 -1.50454,-0.80521 -5.17965,-4.16486 -8.16691,-7.46589 -11.00414,-12.15996 -16.71203,-29.62956 -14.54308,-44.51065 1.53053,-10.50097 4.22791,-17.71171 9.71069,-25.95899 7.93424,-11.93481 21.07326,-20.33693 36.73927,-23.49398 9.44376,-1.90312 11.43766,-1.90793 20.29216,-0.0489 11.02244,2.31419 20.87313,7.69725 29.11075,15.90802 11.16229,11.1259 16.59247,23.87428 16.58546,38.93748 -0.0107,23.03133 -11.03817,40.21648 -34.07453,53.1017 -12.10382,6.77018 -20.11505,14.23391 -24.84049,23.14285 -8.02236,15.12467 -8.30728,29.74737 -0.8951,45.93771 1.43765,3.14024 2.61391,6.26506 2.61391,6.94405 0,1.1646 -6.5652,16.58574 -10.54688,24.77379 -1.00295,2.0625 -2.55016,3.75 -3.43825,3.75 -0.88809,0 -9.24224,-1.10829 -18.56479,-2.46287 -45.91029,-6.67084 -73.84379,-9.243 -114.42438,-10.53636 -32.94509,-1.05001 -79.60588,0.0477 -107.37833,2.526 -23.2218,2.07227 -74.5307,8.68849 -85.2932,10.99846 -1.1801,0.25329 -2.3889,-0.0988 -2.6862,-0.78235 z M 489.7902,387.0085 c -5.0394,-2.73722 -9.0008,-9.64994 -9.0947,-15.87042 -0.2117,-14.03382 14.981,-22.94409 27.3083,-16.0158 5.7576,3.23596 8.9973,8.98782 8.9924,15.96558 0,6.35117 -2.0796,10.34845 -7.5311,14.50656 -4.957,3.78088 -14.1067,4.43849 -19.6749,1.41408 z m 441.95738,-0.0778 c -9.93359,-5.24403 -12.43413,-19.20753 -5.01794,-28.02117 3.46226,-4.1147 7.89365,-5.90953 14.59039,-5.90953 18.55076,0 24.17418,26.42099 7.2586,34.10367 -5.28319,2.3995 -12.09057,2.32953 -16.83105,-0.17301 z M 617.9409,319.9701 c 7.4297,-11.49517 12.3074,-26.00286 13.8396,-41.16345 l 0.7195,-7.11809 4.4731,6.40574 c 8.8323,12.64814 21.3376,23.55458 36.89355,32.17637 l 6.3106,3.49764 -8.8386,1.17565 c -14.39185,1.91429 -37.16635,6.10513 -47.10115,8.6673 -5.0944,1.31383 -9.4721,2.38878 -9.7282,2.38878 -0.2561,0 1.2881,-2.71347 3.4316,-6.02994 z m 194.55913,3.37111 c -8.48611,-2.24177 -36.61315,-7.41037 -48.3432,-8.88349 l -5.3432,-0.67103 7.8432,-4.46646 c 15.23564,-8.67621 26.99058,-19.25455 35.89556,-32.30266 l 4.94764,-7.24958 0.68542,9.47245 c 0.37699,5.20985 1.42611,12.34955 2.33138,15.86601 1.71055,6.64446 7.38712,19.29597 11.95462,26.64355 3.16058,5.08432 3.2173,5.07527 -9.97142,1.59121 z M 709.00005,288.96307 c -19.8486,-2.71743 -40.8689,-17.41754 -49.83695,-34.85248 -7.4653,-14.51353 -9.886,-26.72936 -8.1205,-40.97986 2.1078,-17.01325 7.9998,-29.16185 19.95745,-41.14971 C 684.05485,158.89315 700.87825,152 719.76565,152 c 11.34906,0 19.00077,1.80498 29.73438,7.01413 18.80767,9.12757 32.17717,25.33374 37.11172,44.98587 2.27885,9.07562 1.48048,30.06543 -1.45583,38.2753 -4.84334,13.54187 -15.21759,27.54296 -25.8063,34.82818 -14.56263,10.01936 -32.65821,14.28168 -50.34957,11.85959 z"
       style="fill:#0a2391;fill-opacity:1" />
  </g>
</svg>
