<?xml version="1.0" encoding="UTF-8"?>
<!DOCTYPE svg PUBLIC "-//W3C//DTD SVG 1.1//EN" "http://www.w3.org/Graphics/SVG/1.1/DTD/svg11.dtd">
<!-- Creator: CorelDRAW 2017 -->
<svg xmlns="http://www.w3.org/2000/svg" xml:space="preserve" width="79.909mm" height="35mm" version="1.1" style="shape-rendering:geometricPrecision; text-rendering:geometricPrecision; image-rendering:optimizeQuality; fill-rule:evenodd; clip-rule:evenodd"
viewBox="0 0 3366 1474"
 xmlns:xlink="http://www.w3.org/1999/xlink">
 <defs>
  <style type="text/css">
   <![CDATA[
    .fil0 {fill:#004A99;fill-rule:nonzero}
   ]]>
  </style>
 </defs>
 <g id="Ebene_x0020_1">
  <metadata id="CorelCorpID_0Corel-Layer"/>
  <path class="fil0" d="M668 378c0,92 -17,168 -51,228 -34,61 -82,106 -144,136 -62,30 -135,45 -218,45l-255 0 0 -787 272 0c85,0 156,15 215,44 59,29 104,72 134,128 31,56 46,125 46,206zm-221 8c0,-48 -6,-87 -19,-119 -13,-31 -32,-55 -57,-71 -25,-16 -58,-23 -96,-23l-62 0 0 441 47 0c65,0 112,-19 142,-56 30,-38 45,-95 45,-172zm829 403l-467 0 0 -787 467 0 0 171 -255 0 0 124 236 0 0 171 -236 0 0 149 255 0 0 173zm481 0l-161 -567 -5 0c1,15 3,35 5,60 2,25 3,52 5,81 1,29 2,57 2,84l0 342 -188 0 0 -787 283 0 164 559 4 0 161 -559 284 0 0 787 -195 0 0 -345c0,-25 0,-51 1,-80 1,-29 2,-55 3,-81 1,-25 2,-45 3,-60l-5 0 -159 566 -202 0z"/>
  <path class="fil0" d="M2663 795c-48,0 -89,-9 -123,-27 -34,-18 -59,-44 -77,-78 -18,-34 -26,-74 -26,-121 0,-47 7,-92 20,-136 13,-44 33,-83 61,-118 27,-35 61,-62 102,-82 41,-20 89,-30 145,-30 64,0 115,14 151,43 37,29 55,67 55,116 0,32 -6,60 -18,86 -12,26 -31,48 -56,66 -25,19 -57,33 -96,43 -39,10 -85,15 -138,15l-30 0c0,1 0,3 0,4 0,1 0,3 0,4 0,26 7,44 21,57 14,12 34,18 62,18 29,0 56,-4 82,-13 26,-9 54,-21 83,-36l0 138c-31,15 -62,28 -95,37 -33,9 -74,14 -124,14zm-10 -345l15 0c29,0 52,-4 70,-12 17,-8 29,-17 37,-29 7,-12 11,-24 11,-35 0,-11 -3,-20 -10,-27 -7,-7 -17,-11 -32,-11 -15,0 -29,6 -42,18 -13,12 -23,27 -32,44 -8,18 -14,35 -16,53zm352 335l166 -785 195 0 -166 785 -195 0z"/>
  <path class="fil0" d="M147 1070c0,20 -4,37 -11,50 -7,13 -18,23 -32,30 -14,7 -30,10 -48,10l-56 0 0 -173 60 0c19,0 34,3 47,10 13,6 23,16 30,28 7,12 10,27 10,45zm-49 2c0,-10 -1,-19 -4,-26 -3,-7 -7,-12 -13,-15 -6,-3 -13,-5 -21,-5l-14 0 0 97 10 0c14,0 25,-4 31,-12 7,-8 10,-21 10,-38zm80 88l0 -173 47 0 0 173 -47 0zm162 -137c-6,0 -10,1 -15,3 -4,2 -8,6 -11,10 -3,4 -5,10 -7,16 -2,6 -2,14 -2,22 0,11 1,20 4,27 3,7 7,13 13,17 6,4 13,6 21,6 8,0 15,-1 22,-3 7,-2 14,-5 22,-8l0 39c-8,3 -15,6 -24,7 -8,1 -17,2 -26,2 -19,0 -34,-4 -46,-11 -12,-7 -21,-18 -26,-31 -6,-13 -8,-29 -8,-46 0,-13 2,-25 6,-36 4,-11 9,-20 16,-28 7,-8 16,-14 26,-19 10,-4 22,-7 36,-7 8,0 17,1 26,3 9,2 18,5 27,9l-14 37c-6,-3 -13,-6 -19,-8 -6,-2 -13,-3 -21,-3zm157 0c-6,0 -10,1 -15,3 -4,2 -8,6 -11,10 -3,4 -5,10 -7,16 -2,6 -2,14 -2,22 0,11 1,20 4,27 3,7 7,13 13,17 6,4 13,6 21,6 8,0 15,-1 22,-3 7,-2 14,-5 22,-8l0 39c-8,3 -15,6 -24,7 -8,1 -17,2 -26,2 -19,0 -34,-4 -46,-11 -12,-7 -21,-18 -26,-31 -6,-13 -8,-29 -8,-46 0,-13 2,-25 6,-36 4,-11 9,-20 16,-28 7,-8 16,-14 26,-19 10,-4 22,-7 36,-7 8,0 17,1 26,3 9,2 18,5 27,9l-14 37c-6,-3 -13,-6 -19,-8 -6,-2 -13,-3 -21,-3zm80 137l0 -173 47 0 0 173 -47 0zm246 -87c0,13 -2,25 -5,36 -3,11 -8,20 -15,28 -7,8 -16,14 -26,18 -11,4 -23,6 -38,6 -15,0 -27,-2 -38,-6 -11,-4 -19,-10 -26,-18 -7,-8 -12,-17 -15,-28 -3,-11 -5,-23 -5,-37 0,-18 3,-34 9,-47 6,-13 15,-24 28,-31 12,-7 28,-11 48,-11 20,0 36,4 48,11 12,7 21,18 27,31 6,13 9,29 9,47zm-119 0c0,10 1,19 4,27 2,7 6,13 11,17 5,4 12,6 20,6 9,0 15,-2 21,-6 5,-4 9,-10 11,-17 2,-7 3,-16 3,-27 0,-16 -3,-28 -8,-37 -5,-9 -14,-14 -27,-14 -8,0 -15,2 -20,6 -5,4 -9,10 -11,17 -2,8 -3,17 -3,27zm315 87l-61 0 -63 -122 -1 0c0,4 1,8 1,13 0,5 1,10 1,16 0,5 0,10 0,15l0 78 -41 0 0 -173 61 0 63 120 1 0c0,-4 0,-8 -1,-13 0,-5 0,-10 -1,-15 0,-5 0,-10 0,-14l0 -78 42 0 0 173zm144 0l-9 -32 -56 0 -9 32 -51 0 56 -173 62 0 57 173 -51 0zm-18 -71l-7 -28c-1,-3 -2,-7 -3,-13 -2,-6 -3,-12 -4,-18 -1,-6 -3,-11 -3,-15 -1,4 -2,9 -3,15 -1,6 -3,12 -4,17 -1,6 -3,10 -4,14l-7 28 37 0zm145 -102c16,0 29,2 39,6 10,4 18,10 24,17 5,8 8,17 8,28 0,7 -1,13 -4,19 -2,6 -6,11 -10,15 -4,5 -10,8 -16,12l50 75 -53 0 -37 -63 -12 0 0 63 -47 0 0 -173 57 0zm-1 35l-9 0 0 39 9 0c7,0 13,-2 18,-5 5,-3 7,-9 7,-17 0,-6 -2,-10 -6,-13 -4,-3 -10,-5 -18,-5zm108 137l0 -173 47 0 0 173 -47 0zm246 -87c0,13 -2,25 -5,36 -3,11 -8,20 -15,28 -7,8 -16,14 -26,18 -11,4 -23,6 -38,6 -15,0 -27,-2 -38,-6 -11,-4 -19,-10 -26,-18 -7,-8 -12,-17 -15,-28 -3,-11 -5,-23 -5,-37 0,-18 3,-34 9,-47 6,-13 15,-24 28,-31 12,-7 28,-11 48,-11 20,0 36,4 48,11 12,7 21,18 27,31 6,13 9,29 9,47zm-119 0c0,10 1,19 4,27 2,7 6,13 11,17 5,4 12,6 20,6 9,0 15,-2 21,-6 5,-4 9,-10 11,-17 2,-7 3,-16 3,-27 0,-16 -3,-28 -8,-37 -5,-9 -14,-14 -27,-14 -8,0 -15,2 -20,6 -5,4 -9,10 -11,17 -2,8 -3,17 -3,27zm360 -3c0,20 -4,37 -11,50 -7,13 -18,23 -32,30 -14,7 -30,10 -48,10l-56 0 0 -173 60 0c19,0 34,3 47,10 13,6 23,16 30,28 7,12 10,27 10,45zm-49 2c0,-10 -1,-19 -4,-26 -3,-7 -7,-12 -13,-15 -6,-3 -13,-5 -21,-5l-14 0 0 97 10 0c14,0 25,-4 31,-12 7,-8 10,-21 10,-38zm182 88l-103 0 0 -173 103 0 0 37 -56 0 0 27 52 0 0 37 -52 0 0 33 56 0 0 38zm30 0l0 -173 47 0 0 135 67 0 0 38 -113 0zm307 0l-103 0 0 -173 103 0 0 37 -56 0 0 27 52 0 0 37 -52 0 0 33 56 0 0 38zm144 -52c0,9 -2,18 -7,27 -5,8 -12,15 -22,20 -10,5 -23,8 -39,8 -8,0 -15,0 -21,-1 -6,-1 -12,-2 -17,-3 -5,-2 -10,-4 -16,-6l0 -42c9,5 19,8 28,11 10,2 18,4 26,4 5,0 8,-1 11,-2 3,-1 5,-3 7,-5 1,-2 2,-4 2,-7 0,-3 -1,-6 -3,-8 -2,-2 -5,-4 -10,-7 -5,-2 -11,-5 -18,-8 -6,-3 -12,-6 -17,-9 -5,-3 -10,-7 -13,-11 -4,-4 -6,-9 -8,-14 -2,-5 -3,-12 -3,-19 0,-11 3,-20 8,-28 5,-8 13,-13 23,-17 10,-4 21,-6 34,-6 11,0 21,1 31,4 9,3 17,5 24,9l-14 36c-7,-3 -15,-6 -22,-8 -7,-2 -14,-3 -20,-3 -4,0 -7,0 -10,1 -3,1 -4,2 -6,4 -1,2 -2,4 -2,6 0,3 1,5 3,7 2,2 6,4 11,7 5,2 12,6 20,10 8,4 16,8 22,12 6,4 10,10 14,16 3,6 5,14 5,23zm87 -120c22,0 38,5 49,14 11,10 16,23 16,41 0,8 -1,15 -3,23 -2,7 -6,14 -11,19 -5,6 -12,10 -20,13 -8,3 -19,5 -31,5l-13 0 0 57 -47 0 0 -173 60 0zm-1 38l-12 0 0 40 9 0c4,0 8,-1 11,-2 3,-1 6,-4 8,-7 2,-3 3,-7 3,-12 0,-5 -2,-10 -5,-13 -3,-3 -8,-5 -15,-5zm201 135l-9 -32 -56 0 -9 32 -51 0 56 -173 62 0 57 173 -51 0zm-18 -71l-7 -28c-1,-3 -2,-7 -3,-13 -2,-6 -3,-12 -4,-18 -1,-6 -3,-11 -3,-15 -1,4 -2,9 -3,15 -1,6 -3,12 -4,17 -1,6 -3,10 -4,14l-7 28 37 0zm253 71l-61 0 -63 -122 -1 0c0,4 1,8 1,13 0,5 1,10 1,16 0,5 0,10 0,15l0 78 -41 0 0 -173 61 0 63 120 1 0c0,-4 0,-8 -1,-13 0,-5 0,-10 -1,-15 0,-5 0,-10 0,-14l0 -78 42 0 0 173zm-133 -185c0,-7 1,-14 3,-19 2,-5 4,-9 6,-12 2,-3 5,-6 9,-7 4,-1 7,-2 12,-2 3,0 6,1 10,2 3,1 7,2 10,4 3,1 7,3 10,4 3,1 7,2 10,2 1,0 3,-1 5,-2 2,-1 3,-5 4,-10l22 0c-1,14 -4,25 -10,31 -5,6 -12,9 -20,9 -4,0 -7,-1 -11,-2 -4,-1 -7,-2 -11,-4 -3,-1 -7,-3 -10,-4 -3,-1 -6,-2 -9,-2 -2,0 -3,1 -5,2 -2,1 -3,4 -4,10l-21 0zm332 99c0,13 -2,25 -5,36 -3,11 -8,20 -15,28 -7,8 -16,14 -26,18 -11,4 -23,6 -38,6 -15,0 -27,-2 -38,-6 -11,-4 -19,-10 -26,-18 -7,-8 -12,-17 -15,-28 -3,-11 -5,-23 -5,-37 0,-18 3,-34 9,-47 6,-13 15,-24 28,-31 12,-7 28,-11 48,-11 20,0 36,4 48,11 12,7 21,18 27,31 6,13 9,29 9,47zm-119 0c0,10 1,19 4,27 2,7 6,13 11,17 5,4 12,6 20,6 9,0 15,-2 21,-6 5,-4 9,-10 11,-17 2,-7 3,-16 3,-27 0,-16 -3,-28 -8,-37 -5,-9 -14,-14 -27,-14 -8,0 -15,2 -20,6 -5,4 -9,10 -11,17 -2,8 -3,17 -3,27zm150 87l0 -173 47 0 0 135 67 0 0 38 -113 0z"/>
  <path class="fil0" d="M76 1472l-35 -124 -1 0c0,3 1,8 1,13 0,6 1,11 1,18 0,6 0,13 0,18l0 75 -41 0 0 -173 62 0 36 123 1 0 35 -123 62 0 0 173 -43 0 0 -76c0,-5 0,-11 0,-18 0,-6 0,-12 1,-18 0,-6 1,-10 1,-13l-1 0 -35 124 -45 0zm262 0l-103 0 0 -173 103 0 0 37 -56 0 0 27 52 0 0 37 -52 0 0 33 56 0 0 38zm177 -90c0,20 -4,37 -11,50 -8,13 -18,23 -32,30 -14,7 -30,10 -48,10l-56 0 0 -173 60 0c19,0 34,3 47,10 13,6 23,16 30,28 7,12 10,27 10,45zm-49 2c0,-10 -1,-19 -4,-26 -3,-7 -7,-12 -13,-15 -6,-3 -13,-5 -21,-5l-14 0 0 97 10 0c14,0 25,-4 31,-12 7,-8 10,-21 10,-38zm80 88l0 -173 47 0 0 173 -47 0zm187 0l-103 0 0 -173 103 0 0 37 -56 0 0 27 52 0 0 37 -52 0 0 33 56 0 0 38zm180 -173l-57 173 -55 0 -56 -173 53 0 24 88c1,3 2,8 3,13 1,5 2,10 3,15 1,5 2,9 2,13 0,-3 1,-7 2,-12 1,-5 2,-10 3,-15 1,-5 2,-9 3,-13l24 -88 52 0zm125 173l-9 -32 -56 0 -9 32 -51 0 56 -173 62 0 57 173 -51 0zm-18 -71l-7 -28c-1,-3 -2,-7 -3,-13 -2,-6 -3,-12 -4,-18 -1,-6 -3,-11 -3,-15 -1,4 -2,9 -3,15 -1,6 -3,12 -4,17 -1,6 -3,10 -4,14l-7 28 37 0zm88 71l0 -173 47 0 0 135 67 0 0 38 -113 0z"/>
  <path class="fil0" d="M1356 1474c-11,0 -21,-2 -29,-6 -8,-4 -14,-10 -18,-18 -4,-8 -6,-17 -6,-28 0,-11 2,-22 5,-32 3,-10 8,-19 14,-28 6,-8 14,-15 24,-19 10,-5 21,-7 34,-7 15,0 27,3 35,10 9,7 13,16 13,27 0,7 -1,14 -4,20 -3,6 -7,11 -13,16 -6,4 -13,8 -22,10 -9,2 -20,3 -32,3l-7 0c0,0 0,1 0,1 0,0 0,1 0,1 0,6 2,10 5,13 3,3 8,4 15,4 7,0 13,-1 19,-3 6,-2 13,-5 20,-9l0 32c-7,4 -15,7 -22,9 -8,2 -17,3 -29,3zm-2 -81l3 0c7,0 12,-1 16,-3 4,-2 7,-4 9,-7 2,-3 3,-6 3,-8 0,-3 -1,-5 -2,-6 -2,-2 -4,-3 -8,-3 -4,0 -7,1 -10,4 -3,3 -5,6 -7,10 -2,4 -3,8 -4,12zm83 78l39 -184 46 0 -39 184 -46 0zm139 2c-11,0 -21,-2 -29,-6 -8,-4 -14,-10 -18,-18 -4,-8 -6,-17 -6,-28 0,-11 2,-22 5,-32 3,-10 8,-19 14,-28 6,-8 14,-15 24,-19 10,-5 21,-7 34,-7 15,0 27,3 35,10 9,7 13,16 13,27 0,7 -1,14 -4,20 -3,6 -7,11 -13,16 -6,4 -13,8 -22,10 -9,2 -20,3 -32,3l-7 0c0,0 0,1 0,1 0,0 0,1 0,1 0,6 2,10 5,13 3,3 8,4 15,4 7,0 13,-1 19,-3 6,-2 13,-5 20,-9l0 32c-7,4 -15,7 -22,9 -8,2 -17,3 -29,3zm-2 -81l3 0c7,0 12,-1 16,-3 4,-2 7,-4 9,-7 2,-3 3,-6 3,-8 0,-3 -1,-5 -2,-6 -2,-2 -4,-3 -8,-3 -4,0 -7,1 -10,4 -3,3 -5,6 -7,10 -2,4 -3,8 -4,12zm140 81c-9,0 -17,-2 -25,-6 -8,-4 -14,-10 -18,-18 -5,-8 -7,-19 -7,-31 0,-9 1,-18 3,-27 2,-8 5,-16 9,-23 4,-7 9,-13 15,-18 6,-5 13,-9 20,-12 7,-3 15,-4 24,-4 8,0 16,1 23,2 7,2 14,4 21,7l-15 34c-4,-2 -8,-3 -13,-5 -5,-1 -9,-2 -14,-2 -5,0 -9,1 -12,4 -4,3 -6,7 -9,11 -2,5 -4,10 -5,15 -1,5 -2,10 -2,14 0,5 1,9 2,12 1,3 3,5 5,6 2,1 5,2 8,2 6,0 11,-1 17,-3 5,-2 11,-4 17,-7l0 36c-6,3 -13,6 -20,8 -7,2 -15,3 -25,3zm111 0c-12,0 -21,-3 -27,-8 -6,-5 -9,-13 -9,-25 0,-3 0,-7 1,-11 1,-4 1,-8 2,-11l10 -47 -18 0 5 -22 26 -10 16 -28 31 0 -6 27 34 0 -7 34 -34 0 -10 45c0,2 -1,5 -1,7 0,2 -1,4 -1,5 0,3 1,5 2,6 1,1 3,2 5,2 3,0 6,-1 10,-2 4,-1 8,-2 11,-4l0 34c-5,2 -11,4 -17,6 -7,1 -14,2 -23,2zm65 -2l28 -134 37 0 -2 22 1 0c4,-6 8,-11 11,-15 4,-4 8,-6 13,-8 5,-1 10,-2 16,-2 2,0 4,0 6,0 2,0 3,0 4,1l-10 45c-2,-1 -4,-1 -6,-2 -3,-1 -5,-1 -8,-1 -4,0 -7,1 -10,2 -3,1 -6,3 -9,6 -3,3 -5,6 -7,10 -2,4 -4,10 -5,16l-13 59 -46 0zm165 2c-11,0 -20,-2 -28,-6 -8,-4 -14,-10 -18,-18 -4,-8 -6,-17 -6,-28 0,-9 1,-18 3,-27 2,-9 5,-16 9,-24 4,-7 9,-14 15,-19 6,-6 13,-10 21,-13 8,-3 17,-5 27,-5 11,0 20,2 28,6 8,4 14,10 18,18 4,8 6,17 6,28 0,9 -1,18 -3,27 -2,9 -5,16 -9,24 -4,7 -9,14 -15,19 -6,6 -13,10 -21,13 -8,3 -17,5 -27,5zm5 -34c3,0 5,-1 8,-3 2,-2 5,-5 7,-8 2,-4 4,-8 5,-12 1,-5 3,-10 3,-15 1,-5 1,-10 1,-16 0,-3 0,-6 -1,-9 -1,-2 -2,-4 -3,-5 -2,-1 -3,-2 -5,-2 -3,0 -5,1 -8,3 -2,2 -5,5 -7,8 -2,4 -4,8 -5,12 -1,5 -3,10 -3,15 -1,5 -1,10 -1,16 0,5 1,9 3,12 2,3 4,4 7,4zm-1 -115l0 -3c4,-3 8,-7 12,-11 4,-4 8,-8 12,-13 4,-4 7,-9 10,-12l52 0 0 2c-2,2 -5,5 -9,8 -4,3 -9,7 -14,11 -5,4 -10,7 -15,10 -5,3 -10,6 -13,8l-34 0zm84 147l28 -134 37 0 -1 19 1 0c3,-5 6,-9 10,-12 4,-3 8,-5 12,-7 4,-1 10,-2 15,-2 8,0 15,2 20,5 5,3 9,8 11,14 2,6 4,12 4,19 0,4 0,9 -1,14 -1,5 -1,9 -2,13l-15 71 -46 0 15 -73c0,-2 1,-5 1,-8 0,-3 1,-6 1,-9 0,-3 -1,-6 -3,-8 -2,-2 -4,-3 -6,-3 -3,0 -6,1 -9,4 -3,2 -5,6 -7,11 -2,5 -4,12 -6,20l-14 65 -46 0zm151 0l28 -134 46 0 -29 134 -46 0zm56 -147c-6,0 -12,-1 -16,-4 -4,-2 -6,-7 -6,-13 0,-5 1,-10 3,-14 2,-4 5,-6 9,-8 4,-2 9,-3 14,-3 6,0 11,1 16,4 4,2 7,7 7,13 0,7 -2,13 -7,18 -4,5 -11,7 -20,7zm80 149c-9,0 -17,-2 -25,-6 -8,-4 -14,-10 -18,-18 -5,-8 -7,-19 -7,-31 0,-9 1,-18 3,-27 2,-8 5,-16 9,-23 4,-7 9,-13 15,-18 6,-5 13,-9 20,-12 7,-3 15,-4 24,-4 8,0 16,1 23,2 7,2 14,4 21,7l-15 34c-4,-2 -8,-3 -13,-5 -5,-1 -9,-2 -14,-2 -5,0 -9,1 -12,4 -4,3 -6,7 -9,11 -2,5 -4,10 -5,15 -1,5 -2,10 -2,14 0,5 1,9 2,12 1,3 3,5 5,6 2,1 5,2 8,2 6,0 11,-1 17,-3 5,-2 11,-4 17,-7l0 36c-6,3 -13,6 -20,8 -7,2 -15,3 -25,3zm124 0c-11,0 -20,-2 -28,-6 -8,-4 -14,-10 -18,-18 -4,-8 -6,-17 -6,-28 0,-9 1,-18 3,-27 2,-9 5,-16 9,-24 4,-7 9,-14 15,-19 6,-6 13,-10 21,-13 8,-3 17,-5 27,-5 11,0 20,2 28,6 8,4 14,10 18,18 4,8 6,17 6,28 0,9 -1,18 -3,27 -2,9 -5,16 -9,24 -4,7 -9,14 -15,19 -6,6 -13,10 -21,13 -8,3 -17,5 -27,5zm5 -34c3,0 5,-1 8,-3 2,-2 5,-5 7,-8 2,-4 4,-8 5,-12 1,-5 3,-10 3,-15 1,-5 1,-10 1,-16 0,-3 0,-6 -1,-9 -1,-2 -2,-4 -3,-5 -2,-1 -3,-2 -5,-2 -3,0 -5,1 -8,3 -2,2 -5,5 -7,8 -2,4 -4,8 -5,12 -1,5 -3,10 -3,15 -1,5 -1,10 -1,16 0,5 1,9 3,12 2,3 4,4 7,4z"/>
 </g>
</svg>
