<?xml version="1.0" encoding="UTF-8"?>
<!DOCTYPE svg PUBLIC "-//W3C//DTD SVG 1.1//EN" "http://www.w3.org/Graphics/SVG/1.1/DTD/svg11.dtd">
<!-- Creator: CorelDRAW 2017 -->
<svg xmlns="http://www.w3.org/2000/svg" xml:space="preserve" width="179.462mm" height="20mm" version="1.1" style="shape-rendering:geometricPrecision; text-rendering:geometricPrecision; image-rendering:optimizeQuality; fill-rule:evenodd; clip-rule:evenodd"
viewBox="0 0 17046 1900"
 xmlns:xlink="http://www.w3.org/1999/xlink">
 <defs>
  <style type="text/css">
   <![CDATA[
    .fil0 {fill:#004A99;fill-rule:nonzero}
   ]]>
  </style>
 </defs>
 <g id="Ebene_x0020_1">
  <metadata id="CorelCorpID_0Corel-Layer"/>
  <path class="fil0" d="M1596 903c0,219 -41,400 -122,545 -81,145 -196,254 -344,326 -148,72 -322,109 -521,109l-608 0 0 -1880 651 0c202,0 374,35 514,104 141,69 247,171 321,305 73,134 110,297 110,491zm-527 18c0,-114 -15,-208 -46,-283 -30,-75 -76,-131 -137,-168 -61,-37 -138,-56 -230,-56l-148 0 0 1053 113 0c154,0 267,-45 339,-134 72,-90 108,-226 108,-411zm1980 962l-1116 0 0 -1880 1116 0 0 408 -608 0 0 296 563 0 0 408 -563 0 0 355 608 0 0 414zm1148 0l-384 -1354 -12 0c3,35 7,83 11,143 4,60 8,125 11,194 3,69 5,136 5,201l0 816 -450 0 0 -1880 676 0 392 1335 10 0 384 -1335 678 0 0 1880 -467 0 0 -824c0,-59 1,-123 3,-191 2,-68 5,-132 8,-193 3,-60 6,-108 8,-143l-12 0 -379 1351 -483 0z"/>
  <path class="fil0" d="M6359 1900c-115,0 -213,-22 -293,-65 -80,-43 -142,-105 -184,-186 -42,-81 -63,-177 -63,-289 0,-112 16,-220 48,-324 32,-104 80,-198 145,-281 65,-83 146,-148 244,-196 98,-48 213,-72 346,-72 153,0 274,35 361,104 87,69 131,161 131,276 0,76 -14,144 -43,206 -29,61 -73,114 -133,159 -60,44 -136,78 -228,102 -92,24 -202,36 -329,36l-71 0c0,3 0,6 0,9 0,3 0,6 0,10 0,61 16,106 49,135 33,29 82,43 148,43 69,0 135,-10 196,-31 62,-21 128,-50 199,-87l0 330c-73,37 -149,67 -227,89 -78,23 -176,34 -295,34zm-24 -824l35 0c70,0 125,-9 166,-28 41,-18 70,-42 88,-70 18,-28 27,-56 27,-84 0,-26 -8,-47 -24,-65 -16,-18 -42,-27 -77,-27 -36,0 -70,14 -100,42 -31,28 -56,63 -76,105 -20,42 -33,84 -39,126zm840 800l397 -1876 466 0 -397 1876 -466 0z"/>
  <path class="fil0" d="M9360 919c0,48 -9,88 -27,120 -18,32 -43,56 -76,71 -33,16 -71,24 -115,24l-134 0 0 -412 143 0c45,0 82,8 113,23 31,15 54,38 71,67 16,29 24,65 24,108zm-116 4c0,-25 -3,-46 -10,-62 -7,-16 -17,-29 -30,-37 -13,-8 -30,-12 -51,-12l-33 0 0 231 25 0c34,0 59,-10 75,-29 16,-20 24,-50 24,-90zm190 211l0 -412 112 0 0 412 -112 0zm386 -327c-13,0 -25,3 -35,8 -10,6 -19,14 -27,24 -7,11 -13,23 -17,39 -4,15 -6,32 -6,51 0,26 3,48 10,65 7,18 17,31 30,40 13,9 30,14 51,14 18,0 36,-3 53,-8 17,-5 34,-11 52,-18l0 94c-18,8 -37,14 -56,17 -19,4 -39,5 -61,5 -45,0 -82,-9 -110,-27 -29,-18 -50,-42 -63,-74 -13,-32 -20,-68 -20,-110 0,-31 4,-60 13,-86 9,-26 22,-48 39,-68 17,-19 38,-34 63,-44 25,-10 54,-16 86,-16 20,0 41,2 63,7 22,5 44,12 65,22l-34 88c-15,-7 -30,-13 -46,-18 -15,-5 -32,-7 -49,-7zm376 0c-13,0 -25,3 -35,8 -10,6 -19,14 -27,24 -7,11 -13,23 -17,39 -4,15 -6,32 -6,51 0,26 3,48 10,65 7,18 17,31 30,40 13,9 30,14 51,14 18,0 36,-3 53,-8 17,-5 34,-11 52,-18l0 94c-18,8 -37,14 -56,17 -19,4 -39,5 -61,5 -45,0 -82,-9 -110,-27 -29,-18 -50,-42 -63,-74 -13,-32 -20,-68 -20,-110 0,-31 4,-60 13,-86 9,-26 22,-48 39,-68 17,-19 38,-34 63,-44 25,-10 54,-16 86,-16 20,0 41,2 63,7 22,5 44,12 65,22l-34 88c-15,-7 -30,-13 -46,-18 -15,-5 -32,-7 -49,-7zm192 327l0 -412 112 0 0 412 -112 0zm589 -207c0,32 -4,61 -11,87 -8,26 -20,48 -36,67 -16,19 -37,33 -62,43 -25,10 -56,15 -91,15 -35,0 -65,-5 -90,-15 -25,-10 -46,-24 -63,-43 -16,-19 -29,-41 -36,-67 -8,-26 -12,-55 -12,-87 0,-43 7,-80 21,-112 14,-32 36,-56 66,-74 30,-17 68,-26 114,-26 47,0 85,9 115,26 30,17 51,42 65,74 14,32 21,69 21,112zm-285 0c0,25 3,46 8,64 6,18 15,32 27,41 12,10 28,14 48,14 21,0 37,-5 49,-14 12,-10 21,-23 26,-41 5,-18 8,-39 8,-64 0,-37 -6,-67 -19,-88 -12,-22 -34,-32 -64,-32 -20,0 -36,5 -49,15 -12,10 -21,24 -27,42 -6,18 -8,39 -8,64zm753 207l-147 0 -151 -291 -3 0c1,9 2,19 3,32 1,12 1,25 2,38 1,13 1,24 1,35l0 186 -99 0 0 -412 146 0 150 287 2 0c-1,-9 -1,-20 -2,-31 -1,-12 -1,-24 -2,-36 0,-12 -1,-23 -1,-32l0 -186 100 0 0 412zm343 0l-20 -77 -134 0 -21 77 -123 0 135 -414 149 0 137 414 -122 0zm-44 -169l-18 -68c-2,-7 -5,-18 -8,-31 -4,-14 -7,-28 -11,-42 -3,-15 -6,-27 -8,-36 -2,9 -4,21 -7,35 -3,14 -6,27 -10,41 -3,14 -6,25 -9,34l-18 68 88 0zm346 -244c38,0 69,5 94,14 25,9 44,23 56,41 13,18 19,41 19,67 0,17 -3,32 -8,46 -6,14 -14,26 -24,37 -10,11 -23,20 -37,28l120 180 -127 0 -88 -150 -28 0 0 150 -112 0 0 -412 135 0zm-2 84l-22 0 0 94 21 0c17,0 31,-4 42,-11 11,-8 16,-21 16,-40 0,-13 -5,-24 -14,-31 -9,-8 -24,-11 -44,-11zm258 328l0 -412 112 0 0 412 -112 0zm589 -207c0,32 -4,61 -11,87 -8,26 -20,48 -36,67 -16,19 -37,33 -62,43 -25,10 -56,15 -91,15 -35,0 -65,-5 -90,-15 -25,-10 -46,-24 -63,-43 -16,-19 -29,-41 -36,-67 -8,-26 -12,-55 -12,-87 0,-43 7,-80 21,-112 14,-32 36,-56 66,-74 30,-17 68,-26 114,-26 47,0 85,9 115,26 30,17 51,42 65,74 14,32 21,69 21,112zm-285 0c0,25 3,46 8,64 6,18 15,32 27,41 12,10 28,14 48,14 21,0 37,-5 49,-14 12,-10 21,-23 26,-41 5,-18 8,-39 8,-64 0,-37 -6,-67 -19,-88 -12,-22 -34,-32 -64,-32 -20,0 -36,5 -49,15 -12,10 -21,24 -27,42 -6,18 -8,39 -8,64zm861 -8c0,48 -9,88 -27,120 -18,32 -43,56 -76,71 -33,16 -71,24 -115,24l-134 0 0 -412 143 0c44,0 82,8 113,23 31,15 54,38 71,67 16,29 24,65 24,108zm-116 4c0,-25 -3,-46 -10,-62 -7,-16 -17,-29 -30,-37 -13,-8 -30,-12 -51,-12l-33 0 0 231 25 0c34,0 59,-10 75,-29 16,-20 24,-50 24,-90zm436 211l-245 0 0 -412 245 0 0 89 -134 0 0 65 124 0 0 89 -124 0 0 78 134 0 0 91zm72 0l0 -412 112 0 0 322 159 0 0 90 -271 0zm733 0l-245 0 0 -412 245 0 0 89 -134 0 0 65 124 0 0 89 -124 0 0 78 134 0 0 91zm343 -125c0,22 -6,44 -17,64 -11,20 -29,36 -53,49 -24,12 -55,19 -92,19 -19,0 -35,-1 -50,-3 -14,-2 -27,-4 -40,-8 -12,-4 -25,-9 -38,-15l0 -99c22,11 45,20 68,26 23,6 43,9 62,9 11,0 20,-1 27,-4 7,-3 12,-6 16,-11 3,-5 5,-10 5,-16 0,-7 -2,-13 -7,-18 -5,-5 -13,-10 -24,-16 -11,-5 -25,-12 -43,-20 -15,-7 -29,-14 -41,-22 -12,-8 -23,-16 -32,-26 -9,-10 -16,-21 -20,-34 -5,-13 -7,-28 -7,-46 0,-27 7,-49 20,-67 13,-18 31,-31 55,-40 23,-9 51,-14 81,-14 27,0 51,3 73,9 22,6 41,13 58,21l-34 86c-18,-8 -35,-15 -52,-19 -17,-5 -33,-7 -48,-7 -10,0 -17,1 -24,4 -6,2 -11,5 -14,9 -3,4 -4,8 -4,14 0,6 3,12 8,17 5,5 13,11 25,16 12,6 28,14 48,23 20,9 37,19 51,29 14,10 25,23 32,38 7,15 11,33 11,54zm207 -287c52,0 92,11 118,34 26,23 39,55 39,97 0,19 -3,37 -8,54 -5,17 -14,33 -26,46 -12,14 -28,24 -48,32 -20,8 -45,12 -74,12l-31 0 0 137 -112 0 0 -412 143 0zm-3 90l-29 0 0 95 22 0c10,0 19,-2 27,-5 8,-3 15,-9 20,-16 5,-7 7,-17 7,-30 0,-13 -4,-24 -12,-32 -8,-8 -20,-12 -36,-12zm479 322l-20 -77 -134 0 -21 77 -123 0 135 -414 149 0 137 414 -122 0zm-44 -169l-18 -68c-2,-7 -5,-18 -8,-31 -4,-14 -7,-28 -11,-42 -3,-15 -6,-27 -8,-36 -2,9 -4,21 -7,35 -3,14 -6,27 -10,41 -3,14 -6,25 -9,34l-18 68 88 0zm604 169l-147 0 -151 -291 -3 0c1,9 2,19 3,32 1,12 1,25 2,38 1,13 1,24 1,35l0 186 -99 0 0 -412 146 0 150 287 2 0c-1,-9 -1,-20 -2,-31 -1,-12 -1,-24 -2,-36 0,-12 -1,-23 -1,-32l0 -186 100 0 0 412zm-317 -442c1,-18 4,-33 7,-45 4,-12 8,-22 14,-30 6,-8 13,-13 22,-17 8,-3 18,-5 28,-5 7,0 15,1 23,4 8,3 16,6 25,9 8,4 16,7 24,9 8,3 16,4 23,4 3,0 7,-2 11,-5 4,-3 7,-11 9,-23l52 0c-2,35 -10,59 -23,74 -13,15 -28,22 -47,22 -8,0 -17,-1 -26,-4 -9,-3 -17,-6 -25,-9 -8,-4 -16,-7 -24,-9 -8,-3 -15,-4 -22,-4 -4,0 -7,1 -11,5 -4,3 -7,11 -9,23l-51 0zm793 235c0,32 -4,61 -11,87 -8,26 -20,48 -36,67 -16,19 -37,33 -63,43 -25,10 -56,15 -91,15 -35,0 -65,-5 -90,-15 -25,-10 -46,-24 -63,-43 -16,-19 -29,-41 -36,-67 -8,-26 -12,-55 -12,-87 0,-43 7,-80 21,-112 14,-32 36,-56 66,-74 30,-17 68,-26 114,-26 47,0 85,9 115,26 30,17 51,42 65,74 14,32 21,69 21,112zm-285 0c0,25 3,46 8,64 6,18 15,32 27,41 12,10 28,14 48,14 21,0 37,-5 49,-14 12,-10 21,-23 26,-41 5,-18 8,-39 8,-64 0,-37 -6,-67 -19,-88 -12,-22 -34,-32 -64,-32 -20,0 -36,5 -49,15 -12,10 -21,24 -27,42 -6,18 -8,39 -8,64zm359 207l0 -412 112 0 0 322 159 0 0 90 -271 0z"/>
  <path class="fil0" d="M9190 1878l-85 -297 -3 0c1,8 2,18 2,31 1,13 2,27 2,43 1,15 1,30 1,44l0 179 -99 0 0 -412 149 0 86 293 2 0 85 -293 149 0 0 412 -103 0 0 -181c0,-13 0,-27 1,-42 0,-15 1,-29 2,-42 1,-13 1,-24 2,-31l-3 0 -83 296 -106 0zm625 0l-245 0 0 -412 245 0 0 89 -134 0 0 65 124 0 0 89 -124 0 0 78 134 0 0 91zm423 -215c0,48 -9,88 -27,120 -18,32 -43,56 -76,71 -33,16 -71,24 -115,24l-134 0 0 -412 143 0c45,0 82,8 113,23 31,15 54,38 71,67 16,29 24,65 24,108zm-116 4c0,-25 -3,-46 -10,-62 -7,-16 -17,-29 -30,-37 -13,-8 -30,-12 -51,-12l-33 0 0 231 25 0c34,0 59,-10 75,-29 16,-20 24,-50 24,-90zm190 211l0 -412 112 0 0 412 -112 0zm447 0l-245 0 0 -412 245 0 0 89 -134 0 0 65 124 0 0 89 -124 0 0 78 134 0 0 91zm430 -412l-135 412 -132 0 -135 -412 126 0 56 209c2,8 4,18 7,30 3,12 5,25 8,37 2,12 4,22 4,30 1,-8 2,-18 4,-30 2,-12 4,-24 7,-36 3,-12 5,-22 7,-30l57 -210 125 0zm298 412l-20 -77 -134 0 -21 77 -123 0 135 -414 149 0 137 414 -122 0zm-44 -169l-18 -68c-2,-7 -5,-18 -8,-31 -4,-14 -7,-28 -11,-42 -3,-15 -6,-27 -8,-36 -2,9 -4,21 -7,35 -3,14 -6,27 -10,41 -3,14 -6,25 -9,34l-18 68 88 0zm210 169l0 -412 112 0 0 322 159 0 0 90 -271 0z"/>
  <path class="fil0" d="M12248 1884c-27,0 -50,-5 -69,-15 -19,-10 -33,-25 -43,-44 -10,-19 -15,-41 -15,-68 0,-26 4,-51 11,-76 7,-24 19,-46 34,-66 15,-19 34,-35 57,-46 23,-11 50,-17 81,-17 36,0 64,8 85,24 20,16 31,38 31,65 0,18 -3,34 -10,48 -7,14 -17,27 -31,37 -14,10 -32,18 -54,24 -22,6 -47,8 -77,8l-17 0c0,1 0,1 0,2 0,1 0,1 0,2 0,14 4,25 12,32 8,7 19,10 35,10 16,0 32,-2 46,-7 15,-5 30,-12 47,-20l0 77c-17,9 -35,16 -53,21 -18,5 -41,8 -69,8zm-6 -193l8 0c16,0 29,-2 39,-6 10,-4 16,-10 21,-16 4,-7 6,-13 6,-20 0,-6 -2,-11 -6,-15 -4,-4 -10,-6 -18,-6 -8,0 -16,3 -23,10 -7,7 -13,15 -18,25 -5,10 -8,20 -9,29zm197 187l93 -439 109 0 -93 439 -109 0zm332 6c-27,0 -50,-5 -69,-15 -19,-10 -33,-25 -43,-44 -10,-19 -15,-41 -15,-68 0,-26 4,-51 11,-76 7,-24 19,-46 34,-66 15,-19 34,-35 57,-46 23,-11 50,-17 81,-17 36,0 64,8 85,24 20,16 31,38 31,65 0,18 -3,34 -10,48 -7,14 -17,27 -31,37 -14,10 -32,18 -54,24 -22,6 -47,8 -77,8l-17 0c0,1 0,1 0,2 0,1 0,1 0,2 0,14 4,25 12,32 8,7 19,10 35,10 16,0 32,-2 46,-7 15,-5 30,-12 47,-20l0 77c-17,9 -35,16 -53,21 -18,5 -41,8 -69,8zm-6 -193l8 0c16,0 29,-2 39,-6 10,-4 16,-10 21,-16 4,-7 6,-13 6,-20 0,-6 -2,-11 -6,-15 -4,-4 -10,-6 -18,-6 -8,0 -16,3 -23,10 -7,7 -13,15 -18,25 -5,10 -8,20 -9,29zm334 193c-22,0 -42,-4 -60,-13 -18,-9 -33,-23 -43,-42 -11,-19 -16,-44 -16,-75 0,-23 3,-44 8,-64 5,-20 13,-39 22,-55 10,-17 22,-31 36,-43 14,-12 30,-21 48,-28 18,-7 37,-10 58,-10 20,0 38,2 55,6 16,4 33,9 49,17l-35 81c-10,-4 -20,-8 -31,-12 -11,-3 -22,-5 -32,-5 -11,0 -21,4 -30,11 -8,7 -15,16 -21,27 -5,11 -10,23 -12,35 -3,12 -4,24 -4,34 0,12 1,22 4,29 3,7 7,12 12,16 5,3 12,5 19,5 14,0 27,-2 39,-6 13,-4 26,-10 41,-18l0 87c-15,8 -31,14 -48,19 -17,4 -36,7 -59,7zm265 0c-28,0 -49,-6 -63,-18 -14,-12 -22,-32 -22,-59 0,-8 1,-17 2,-27 1,-10 3,-19 5,-27l24 -113 -44 0 12 -54 62 -25 39 -68 73 0 -14 64 81 0 -18 82 -82 0 -24 108c-1,5 -2,11 -3,16 -1,6 -1,10 -1,13 0,6 2,11 5,14 3,3 8,4 13,4 7,0 15,-1 24,-4 9,-3 18,-6 27,-9l0 82c-12,6 -26,10 -41,14 -16,3 -34,5 -55,5zm155 -6l68 -320 87 0 -5 53 2 0c9,-15 18,-27 27,-35 9,-9 19,-15 31,-18 11,-4 24,-5 38,-5 4,0 9,0 13,1 5,0 8,1 9,2l-24 108c-4,-2 -9,-3 -15,-4 -6,-1 -13,-2 -20,-2 -8,0 -16,1 -24,4 -7,3 -14,7 -20,13 -6,6 -12,14 -16,25 -5,10 -9,23 -12,39l-30 140 -109 0zm394 6c-26,0 -49,-5 -67,-14 -18,-10 -32,-24 -42,-42 -10,-18 -14,-41 -14,-67 0,-22 2,-43 7,-63 5,-20 12,-39 22,-57 10,-17 22,-33 36,-46 15,-13 31,-23 50,-31 19,-7 41,-11 64,-11 26,0 49,5 67,14 18,10 32,24 42,42 10,18 14,41 14,67 0,22 -2,43 -7,63 -5,20 -12,39 -22,57 -10,17 -22,33 -36,46 -15,13 -31,23 -50,31 -19,7 -41,11 -64,11zm12 -82c6,0 12,-2 18,-7 6,-5 11,-12 16,-20 5,-9 9,-18 12,-29 3,-11 6,-23 8,-35 2,-12 3,-25 3,-37 0,-8 -1,-15 -3,-21 -2,-6 -5,-10 -8,-13 -4,-3 -8,-4 -13,-4 -6,0 -12,2 -18,7 -6,5 -11,12 -16,20 -5,8 -9,18 -12,29 -3,11 -6,23 -8,35 -2,13 -3,25 -3,38 0,12 2,22 6,28 4,6 10,9 18,9zm-3 -274l0 -6c9,-7 18,-16 28,-26 10,-10 19,-20 28,-31 9,-11 17,-21 24,-30l124 0 0 4c-4,5 -11,12 -21,20 -10,8 -21,16 -33,25 -12,9 -25,17 -37,25 -12,8 -23,14 -32,19l-81 0zm202 350l68 -320 87 0 -3 45 2 0c7,-12 15,-22 23,-29 8,-7 18,-13 29,-16 11,-3 23,-5 36,-5 20,0 36,4 49,12 12,8 21,19 27,33 6,14 9,29 9,45 0,11 -1,21 -2,33 -1,11 -3,22 -5,32l-36 170 -109 0 36 -174c1,-5 2,-11 3,-19 1,-8 2,-15 2,-21 0,-8 -2,-14 -6,-18 -4,-4 -9,-6 -15,-6 -7,0 -14,3 -21,9 -6,6 -12,15 -18,27 -5,12 -10,28 -14,47l-33 156 -109 0zm360 0l68 -320 110 0 -68 320 -109 0zm135 -350c-15,0 -28,-3 -39,-9 -10,-6 -15,-16 -15,-31 0,-13 3,-24 8,-32 5,-9 12,-15 22,-20 10,-5 21,-7 34,-7 15,0 27,3 38,9 11,6 16,16 16,31 0,18 -5,32 -16,43 -10,11 -26,16 -48,16zm190 356c-22,0 -42,-4 -60,-13 -18,-9 -33,-23 -43,-42 -11,-19 -16,-44 -16,-75 0,-23 3,-44 8,-64 5,-20 13,-39 22,-55 10,-17 22,-31 36,-43 14,-12 30,-21 48,-28 18,-7 37,-10 58,-10 20,0 38,2 55,6 16,4 33,9 49,17l-35 81c-10,-4 -20,-8 -31,-12 -11,-3 -22,-5 -32,-5 -11,0 -21,4 -30,11 -8,7 -15,16 -21,27 -5,11 -10,23 -12,35 -3,12 -4,24 -4,34 0,12 1,22 4,29 3,7 7,12 12,16 5,3 12,5 19,5 14,0 27,-2 39,-6 13,-4 26,-10 41,-18l0 87c-15,8 -31,14 -48,19 -17,4 -36,7 -59,7zm296 0c-26,0 -49,-5 -67,-14 -18,-10 -32,-24 -42,-42 -10,-18 -14,-41 -14,-67 0,-22 2,-43 7,-63 5,-20 12,-39 22,-57 10,-17 22,-33 36,-46 15,-13 31,-23 50,-31 19,-7 41,-11 64,-11 26,0 49,5 67,14 18,10 32,24 42,42 10,18 14,41 14,67 0,22 -2,43 -7,63 -5,20 -12,39 -22,57 -10,17 -22,33 -36,46 -15,13 -31,23 -50,31 -19,7 -41,11 -64,11zm12 -82c6,0 12,-2 18,-7 6,-5 11,-12 16,-20 5,-9 9,-18 12,-29 3,-11 6,-23 8,-35 2,-12 3,-25 3,-37 0,-8 -1,-15 -3,-21 -2,-6 -5,-10 -8,-13 -4,-3 -8,-4 -13,-4 -6,0 -12,2 -18,7 -6,5 -11,12 -16,20 -5,8 -9,18 -12,29 -3,11 -6,23 -8,35 -2,13 -3,25 -3,38 0,12 2,22 6,28 4,6 10,9 18,9z"/>
 </g>
</svg>
